<?xml version="1.0" encoding="utf-8"?>
<!-- Generator: Adobe Illustrator 27.6.1, SVG Export Plug-In . SVG Version: 6.00 Build 0)  -->
<svg version="1.1" id="Layer_1" xmlns="http://www.w3.org/2000/svg" xmlns:xlink="http://www.w3.org/1999/xlink" x="0px" y="0px"
	 viewBox="0 0 16 16" style="enable-background:new 0 0 16 16;" xml:space="preserve">
<style type="text/css">
	.st0{stroke:#FFFFFF;stroke-width:0.3125;stroke-miterlimit:10;}
	.st1{fill:#F2F2F2;}
	.st2{fill:#999999;}
	.st3{fill:#FFFFFF;}
</style>
<path class="st0" d="M14.25,15.84H1.75c-0.88,0-1.59-0.71-1.59-1.59V1.75c0-0.88,0.71-1.59,1.59-1.59h12.51
	c0.88,0,1.59,0.71,1.59,1.59v12.51C15.84,15.13,15.13,15.84,14.25,15.84z"/>
<g>
	<path class="st1" d="M0.88,4.4V3.85h3.04V4.4H0.88z"/>
	<path class="st2" d="M3.79,10.74L1.01,9.57V8.95l2.79-1.17v0.63L2.17,9.05l-0.25,0.1C1.88,9.18,1.83,9.19,1.79,9.21
		C1.74,9.22,1.7,9.24,1.65,9.25C1.79,9.31,1.98,9.38,2.2,9.47l1.59,0.62V10.74z"/>
	<path class="st3" d="M5.82,11.13V7.31H4.41V6.75h3.47v0.56h-1.4v3.82H5.82z"/>
	<path class="st2" d="M8.76,11.13l1.69-4.38h0.59l-1.69,4.38H8.76z"/>
	<path class="st2" d="M12.26,10.74v-0.65l1.65-0.64c0.14-0.06,0.31-0.12,0.51-0.19c-0.05-0.02-0.09-0.03-0.13-0.05
		c-0.04-0.02-0.08-0.03-0.12-0.04c-0.05-0.02-0.09-0.03-0.13-0.05c-0.04-0.01-0.08-0.03-0.12-0.05l-1.65-0.65V7.78l2.79,1.17v0.62
		L12.26,10.74z"/>
</g>
</svg>
