<?xml version="1.0" encoding="UTF-8"?>
<svg xmlns="http://www.w3.org/2000/svg" version="1.1" viewBox="0 0 512 512">
  <!-- Generator: Adobe Illustrator 30.0.0, SVG Export Plug-In . SVG Version: 2.1.1 Build 123)  -->
  <g id="inksplat">
    <path d="M40,16h272c13.25,0,24,10.75,24,24v228c0,32,17.33,48,52,48h66.39c22.98,0,41.61,18.63,41.61,41.61v90.39c0,26.51-21.49,48-48,48h-84c-26.51,0-48-21.49-48-48v-60c0-34.67-16-52-48-52H40c-13.25,0-24-10.75-24-24V40c0-13.25,10.75-24,24-24Z"/>
  </g>
  <g id="circles">
    <circle cx="416" cy="230" r="44"/>
    <circle cx="230" cy="416" r="44"/>
  </g>
</svg>